<?xml version="1.0" standalone="no"?>
<!DOCTYPE svg PUBLIC "-//W3C//DTD SVG 20010904//EN"
 "http://www.w3.org/TR/2001/REC-SVG-20010904/DTD/svg10.dtd">
<svg version="1.0" xmlns="http://www.w3.org/2000/svg"
 width="50.000000pt" height="50.000000pt" viewBox="0 0 300.000000 300.000000"
 preserveAspectRatio="xMidYMid meet">
<metadata>
Created by potrace 1.10, written by Peter Selinger 2001-2011
</metadata>
<g transform="translate(0.000000,300.000000) scale(0.100000,-0.100000)"
fill="#000000" stroke="none">
<path d="M1234 2975 c-287 -52 -552 -188 -766 -394 -215 -206 -350 -440 -426
-739 -25 -101 -27 -119 -27 -342 0 -223 2 -240 28 -343 51 -204 137 -388 257
-552 74 -102 256 -275 366 -348 178 -118 379 -199 582 -232 82 -14 144 -16
305 -13 186 5 211 8 317 36 304 82 554 235 756 464 208 236 346 555 360 838 6
122 -7 119 -31 -6 -8 -42 -17 -79 -19 -81 -3 -3 -8 12 -11 33 -4 22 -14 49
-21 62 -13 19 -13 28 -1 65 8 23 20 79 27 125 13 85 26 104 37 52 11 -56 23
-42 23 25 0 37 -9 113 -21 168 -58 291 -197 550 -405 762 -211 214 -507 370
-798 420 -110 19 -429 19 -532 0z m474 -39 c2 -3 -3 -40 -12 -83 -8 -43 -17
-94 -18 -113 -3 -34 -4 -35 -56 -42 -112 -16 -307 -99 -430 -182 -46 -31 -56
-34 -80 -25 -49 19 -215 48 -319 55 l-103 7 0 73 0 74 48 30 c169 109 408 189
637 214 45 5 326 -2 333 -8z m161 -26 c229 -58 451 -180 629 -346 45 -42 82
-80 82 -85 0 -6 11 -22 25 -36 13 -15 22 -30 19 -33 -3 -3 -16 8 -29 24 -12
15 -25 24 -29 18 -3 -5 -27 -13 -53 -17 -60 -9 -201 -52 -230 -71 -20 -13 -26
-10 -80 44 -68 68 -181 138 -360 224 -70 34 -129 62 -131 63 -4 3 16 129 29
188 13 55 16 56 128 27z m-1229 -313 c0 -58 -2 -65 -26 -78 -45 -24 -157 -152
-208 -238 -26 -45 -67 -128 -90 -183 -40 -99 -42 -101 -106 -142 -36 -24 -71
-50 -79 -59 -29 -36 -29 -13 0 71 46 130 134 294 216 403 65 87 265 289 285
289 5 0 8 -28 8 -63z m1196 -6 c158 -77 291 -159 347 -215 l37 -37 0 -222 c0
-122 -3 -246 -6 -275 l-7 -52 -171 -84 c-166 -82 -292 -136 -348 -150 -23 -5
-52 8 -165 76 -154 91 -299 186 -355 232 -37 30 -38 32 -38 101 0 39 7 161 17
273 l17 203 61 38 c79 50 185 103 260 130 50 18 166 47 199 50 5 1 73 -30 152
-68z m-1001 -92 c108 -10 230 -32 270 -48 20 -8 20 -9 3 -192 -9 -101 -17
-223 -17 -271 l-1 -86 -185 -96 c-102 -53 -220 -117 -261 -142 l-76 -46 -40
38 c-60 59 -141 161 -187 238 l-42 68 36 87 c82 193 162 314 274 418 47 44 61
51 86 48 17 -3 80 -10 140 -16z m1797 -157 c89 -71 120 -107 159 -183 82 -164
134 -343 124 -429 -14 -123 -46 -304 -56 -316 -23 -28 -138 -68 -260 -89 -35
-7 -37 -6 -64 47 -34 64 -118 191 -213 317 -68 91 -69 94 -61 133 5 21 10 142
12 269 l2 229 65 26 c61 24 163 51 202 53 9 1 50 -25 90 -57z m-2259 -568 c19
-27 67 -80 106 -118 38 -38 68 -73 66 -77 -10 -15 -35 -267 -35 -344 1 -77 13
-198 25 -248 6 -22 0 -28 -52 -56 -32 -17 -81 -49 -109 -70 l-51 -39 -34 26
c-63 47 -121 107 -141 146 -33 64 -76 255 -88 385 -14 170 1 349 36 408 22 38
80 89 154 135 25 15 25 15 56 -42 17 -32 47 -80 67 -106z m805 19 c50 -38 172
-117 273 -178 l182 -109 -7 -135 c-3 -74 -6 -212 -6 -307 l0 -172 -107 -67
c-132 -81 -292 -160 -356 -177 -47 -12 -49 -11 -135 31 -110 55 -262 143 -328
192 -110 81 -128 130 -128 359 -1 135 17 334 32 357 8 12 135 84 347 197 77
41 141 75 142 75 0 1 42 -29 91 -66z m1151 -180 c53 -73 121 -174 153 -225 52
-86 55 -95 43 -118 -7 -14 -40 -81 -74 -150 -57 -119 -130 -228 -213 -319
l-38 -41 -137 21 c-169 25 -288 52 -355 81 l-51 22 5 306 c3 169 8 312 12 318
4 7 16 12 27 12 31 0 183 65 349 149 85 43 161 78 169 77 7 -1 57 -60 110
-133z m555 -330 c11 -129 7 -190 -15 -255 -78 -230 -269 -512 -388 -572 -66
-34 -147 -56 -203 -56 l-48 0 0 166 0 167 69 81 c105 124 196 274 245 406 l17
45 105 22 c58 12 126 32 152 46 26 13 50 25 53 26 3 0 9 -33 13 -76z m-2273
-394 c55 -55 182 -136 344 -221 75 -38 133 -74 130 -79 -3 -5 3 -77 15 -160
11 -84 20 -158 20 -166 0 -20 -96 -17 -227 8 -107 20 -158 20 -137 -1 23 -22
198 -56 334 -64 30 -2 94 -17 141 -34 93 -33 258 -68 369 -78 102 -10 94 -30
-15 -39 -158 -13 -389 19 -553 77 -107 38 -282 118 -282 129 0 5 -9 9 -19 9
-22 0 -119 69 -213 152 -69 62 -182 209 -262 339 -25 42 -46 80 -46 83 0 4 22
-12 50 -35 28 -23 50 -48 50 -54 0 -19 78 -171 95 -185 23 -19 19 0 -26 112
l-42 102 33 26 c38 30 182 120 193 120 4 0 25 -18 48 -41z m1219 -108 c90 -21
280 -51 324 -51 l26 0 0 -170 0 -170 -47 -34 c-58 -42 -224 -130 -349 -184
l-91 -39 -104 13 c-143 18 -245 40 -342 72 l-82 27 -22 155 c-28 204 -30 187
17 195 49 8 263 114 390 193 l95 59 50 -23 c28 -13 88 -32 135 -43z m574 -422
c-29 -32 -169 -122 -262 -168 -96 -48 -227 -94 -331 -116 -92 -19 -101 -19
-101 3 0 14 19 27 68 47 128 53 342 168 387 207 35 31 50 38 67 32 29 -9 94
-6 133 5 51 16 60 13 39 -10z"/>
</g>
</svg>
